<?xml version='1.0' encoding='utf8'?>
<svg xmlns="http://www.w3.org/2000/svg" enable-background="new 0 0 48 48" version="1.1" viewBox="0 0 48 48" x="0px" xml:space="preserve" xmlns:xlink="http://www.w3.org/1999/xlink" y="0px">
<g id="wind">
	<g>
		<path fill="none"   stroke-linecap="round" stroke-linejoin="round" stroke-miterlimit="10" d="
			M35.5,36c5.2,0,9.5-4.3,9.5-9.5c0-3.2-1.6-6-4-7.8c0-0.2,0-0.5,0-0.7c0-6.6-5.4-12-12-12s-12,5.4-12,12c0,1.2,0.2,2.4,0.5,3.5
			C16,20,13.9,19,11.5,19C6.8,19,3,22.8,3,27.5"/>
		<path fill="none"   stroke-linecap="round" stroke-linejoin="round" stroke-miterlimit="10" d="
			M31.7,23.3c0.8,0.8,1.3,1.9,1.3,3.2s-0.5,2.4-1.3,3.2c-0.8,0.8-1.9,1.3-3.2,1.3H3"/>
		
			<line fill="none"   stroke-linecap="round" stroke-linejoin="round" stroke-miterlimit="10" x1="29" y1="34" x2="9" y2="34"/>
		<path fill="none"   stroke-linecap="round" stroke-linejoin="round" stroke-miterlimit="10" d="
			M31,40c0-1.7-1.3-3-3-3H13"/>
	</g>
</g>
<g id="setting-roll">
	<g>
		<path fill="none"   stroke-linecap="round" stroke-linejoin="round" stroke-miterlimit="10" d="
			M44.4,20.7l-2.8-0.5c-0.5-2.1-1.3-4.2-2.5-5.9l1.6-2.3c0.6-0.8,0.5-1.9-0.2-2.6l-0.9-0.9l-0.9-0.9c-0.7-0.7-1.8-0.8-2.6-0.2
			l-2.3,1.6c-1.8-1.2-3.8-2-5.9-2.5l-0.5-2.8c-0.2-1-1-1.6-2-1.6H24h-1.3c-1,0-1.8,0.7-2,1.6l-0.5,2.8C18,6.9,16,7.7,14.3,8.9
			l-2.3-1.6c-0.8-0.6-1.9-0.5-2.6,0.2L8.4,8.4L7.5,9.4c-0.7,0.7-0.8,1.8-0.2,2.6l1.6,2.3c-1.2,1.8-2,3.8-2.5,5.9l-2.8,0.5
			c-1,0.2-1.6,1-1.6,2V24v1.3c0,1,0.7,1.8,1.6,2l2.8,0.5C6.9,30,7.7,32,8.9,33.7l-1.6,2.3c-0.6,0.8-0.5,1.9,0.2,2.6l0.9,0.9l0.9,0.9
			c0.7,0.7,1.8,0.8,2.6,0.2l2.3-1.6c1.8,1.2,3.8,2,5.9,2.5l0.5,2.8c0.2,1,1,1.6,2,1.6H24h1.3c1,0,1.8-0.7,2-1.6l0.5-2.8
			c2.1-0.5,4.2-1.3,5.9-2.5l2.3,1.6c0.8,0.6,1.9,0.5,2.6-0.2l0.9-0.9l0.9-0.9c0.7-0.7,0.8-1.8,0.2-2.6l-1.6-2.3
			c1.2-1.8,2-3.8,2.5-5.9l2.8-0.5c1-0.2,1.6-1,1.6-2V24v-1.3C46,21.7,45.3,20.9,44.4,20.7z"/>
		
			<circle fill="none"   stroke-linecap="round" stroke-linejoin="round" stroke-miterlimit="10" cx="24" cy="24" r="8"/>
	</g>
</g>
<g id="processor">
	
		<rect x="13" y="13" fill="none"   stroke-linecap="round" stroke-miterlimit="10" width="22" height="22"/>
	<path fill="none"   stroke-linecap="round" stroke-miterlimit="10" d="M37,40H11
		c-1.6568546,0-3-1.3431473-3-3V11c0-1.6568546,1.3431454-3,3-3h26c1.6568527,0,3,1.3431454,3,3v26
		C40,38.6568527,38.6568527,40,37,40z"/>
	
		<line fill="none"   stroke-linecap="round" stroke-miterlimit="10" x1="14" y1="2" x2="14" y2="8"/>
	
		<line fill="none"   stroke-linecap="round" stroke-miterlimit="10" x1="24" y1="2" x2="24" y2="8"/>
	
		<line fill="none"   stroke-linecap="round" stroke-miterlimit="10" x1="34" y1="2" x2="34" y2="8"/>
	
		<line fill="none"   stroke-linecap="round" stroke-miterlimit="10" x1="14" y1="40" x2="14" y2="46"/>
	
		<line fill="none"   stroke-linecap="round" stroke-miterlimit="10" x1="24" y1="40" x2="24" y2="46"/>
	
		<line fill="none"   stroke-linecap="round" stroke-miterlimit="10" x1="34" y1="40" x2="34" y2="46"/>
	
		<line fill="none"   stroke-linecap="round" stroke-miterlimit="10" x1="46" y1="14" x2="40" y2="14"/>
	
		<line fill="none"   stroke-linecap="round" stroke-miterlimit="10" x1="46" y1="24" x2="40" y2="24"/>
	
		<line fill="none"   stroke-linecap="round" stroke-miterlimit="10" x1="46" y1="34" x2="40" y2="34"/>
	
		<line fill="none"   stroke-linecap="round" stroke-miterlimit="10" x1="8" y1="14" x2="2" y2="14"/>
	
		<line fill="none"   stroke-linecap="round" stroke-miterlimit="10" x1="8" y1="24" x2="2" y2="24"/>
	
		<line fill="none"   stroke-linecap="round" stroke-miterlimit="10" x1="8" y1="34" x2="2" y2="34"/>
	
		<line fill="none"   stroke-linecap="round" stroke-miterlimit="10" x1="17" y1="17" x2="17" y2="21"/>
	
		<line fill="none"   stroke-linecap="round" stroke-miterlimit="10" x1="21" y1="17" x2="21" y2="21"/>
	
		<line fill="none"   stroke-linecap="round" stroke-miterlimit="10" x1="25" y1="17" x2="25" y2="21"/>
	
		<rect x="23" y="27" fill="none"   stroke-linecap="round" stroke-miterlimit="10" width="8" height="4"/>
</g>
<g id="image-file">
	<path fill="none"   stroke-linecap="round" stroke-linejoin="round" stroke-miterlimit="10" d="
		M6,4c0-1.1045694,0.8954306-2,2-2h22.0000134L42,14v30c0,1.1045685-0.8954315,2-2,2H8c-1.1045694,0-2-0.8954315-2-2V4z"/>
	
		<polyline fill="none"   stroke-linecap="round" stroke-linejoin="round" stroke-miterlimit="10" points="
		30,3 30,14 42,14 	"/>
	
		<polyline fill="none"   stroke-linecap="round" stroke-linejoin="round" stroke-miterlimit="10" points="
		6,42 18.8571434,30.1000004 26,35 35.5714302,25 42,30.1000004 	"/>
	
		<circle fill="none"   stroke-linecap="round" stroke-linejoin="round" stroke-miterlimit="10" cx="18.5" cy="20.5" r="4.5"/>
</g>
<g id="thermometer-3">
	<g>
		
			<line fill="none"   stroke-linejoin="round" stroke-miterlimit="10" x1="24" y1="24" x2="24" y2="35"/>
		<path fill="none"   stroke-linecap="round" stroke-linejoin="round" stroke-miterlimit="10" d="
			M28,31.1V7c0-2.2-1.8-4-4-4h0c-2.2,0-4,1.8-4,4v24.1c-2.7,1.6-4.4,4.7-3.9,8.2c0.5,3.5,3.5,6.3,7,6.7c4.8,0.5,8.9-3.2,8.9-7.9
			C32,35,30.4,32.5,28,31.1z"/>
		<circle cx="24" cy="38" r="5"/>
		
			<line fill="none"   stroke-linecap="round" stroke-linejoin="round" stroke-miterlimit="10" x1="33" y1="6" x2="35" y2="6"/>
		
			<line fill="none"   stroke-linecap="round" stroke-linejoin="round" stroke-miterlimit="10" x1="33" y1="11" x2="35" y2="11"/>
		
			<line fill="none"   stroke-linecap="round" stroke-linejoin="round" stroke-miterlimit="10" x1="33" y1="16" x2="35" y2="16"/>
		
			<line fill="none"   stroke-linecap="round" stroke-linejoin="round" stroke-miterlimit="10" x1="33" y1="21" x2="35" y2="21"/>
	</g>
</g>
<g id="drop">
	<g>
		<path fill="none"   stroke-linecap="round" stroke-miterlimit="10" d="M40.4,34.5
			c0,3-2.4,5.5-5.5,5.5s-5.5-2.4-5.5-5.5s5.5-9.8,5.5-9.8S40.4,31.5,40.4,34.5z"/>
		<path fill="none"   stroke-linecap="round" stroke-miterlimit="10" d="M29.5,16.8
			c0,3-2.4,5.5-5.5,5.5s-5.5-2.4-5.5-5.5S24,7,24,7S29.5,13.8,29.5,16.8z"/>
		<path fill="none"   stroke-linecap="round" stroke-miterlimit="10" d="M18.6,34.5
			c0,3-2.4,5.5-5.5,5.5s-5.5-2.4-5.5-5.5s5.5-9.8,5.5-9.8S18.6,31.5,18.6,34.5z"/>
	</g>
</g>
</svg>