<?xml version='1.0' encoding='utf8'?>
<svg xmlns="http://www.w3.org/2000/svg" enable-background="new 0 0 48 48" version="1.1" viewBox="0 0 48 48" x="0px" xml:space="preserve" xmlns:xlink="http://www.w3.org/1999/xlink" y="0px">
<g id="wind">
	<g>
		<path fill="none"   stroke-linecap="round" stroke-linejoin="round" stroke-miterlimit="10" d="
			M35.5,36c5.2,0,9.5-4.3,9.5-9.5c0-3.2-1.6-6-4-7.8c0-0.2,0-0.5,0-0.7c0-6.6-5.4-12-12-12s-12,5.4-12,12c0,1.2,0.2,2.4,0.5,3.5
			C16,20,13.9,19,11.5,19C6.8,19,3,22.8,3,27.5"/>
		<path fill="none"   stroke-linecap="round" stroke-linejoin="round" stroke-miterlimit="10" d="
			M31.7,23.3c0.8,0.8,1.3,1.9,1.3,3.2s-0.5,2.4-1.3,3.2c-0.8,0.8-1.9,1.3-3.2,1.3H3"/>
		
			<line fill="none"   stroke-linecap="round" stroke-linejoin="round" stroke-miterlimit="10" x1="29" y1="34" x2="9" y2="34"/>
		<path fill="none"   stroke-linecap="round" stroke-linejoin="round" stroke-miterlimit="10" d="
			M31,40c0-1.7-1.3-3-3-3H13"/>
	</g>
</g>
<g id="setting-roll">
	<g>
		<path fill="none"   stroke-linecap="round" stroke-linejoin="round" stroke-miterlimit="10" d="
			M44.4,20.7l-2.8-0.5c-0.5-2.1-1.3-4.2-2.5-5.9l1.6-2.3c0.6-0.8,0.5-1.9-0.2-2.6l-0.9-0.9l-0.9-0.9c-0.7-0.7-1.8-0.8-2.6-0.2
			l-2.3,1.6c-1.8-1.2-3.8-2-5.9-2.5l-0.5-2.8c-0.2-1-1-1.6-2-1.6H24h-1.3c-1,0-1.8,0.7-2,1.6l-0.5,2.8C18,6.9,16,7.7,14.3,8.9
			l-2.3-1.6c-0.8-0.6-1.9-0.5-2.6,0.2L8.4,8.4L7.5,9.4c-0.7,0.7-0.8,1.8-0.2,2.6l1.6,2.3c-1.2,1.8-2,3.8-2.5,5.9l-2.8,0.5
			c-1,0.2-1.6,1-1.6,2V24v1.3c0,1,0.7,1.8,1.6,2l2.8,0.5C6.9,30,7.7,32,8.9,33.7l-1.6,2.3c-0.6,0.8-0.5,1.9,0.2,2.6l0.9,0.9l0.9,0.9
			c0.7,0.7,1.8,0.8,2.6,0.2l2.3-1.6c1.8,1.2,3.8,2,5.9,2.5l0.5,2.8c0.2,1,1,1.6,2,1.6H24h1.3c1,0,1.8-0.7,2-1.6l0.5-2.8
			c2.1-0.5,4.2-1.3,5.9-2.5l2.3,1.6c0.8,0.6,1.9,0.5,2.6-0.2l0.9-0.9l0.9-0.9c0.7-0.7,0.8-1.8,0.2-2.6l-1.6-2.3
			c1.2-1.8,2-3.8,2.5-5.9l2.8-0.5c1-0.2,1.6-1,1.6-2V24v-1.3C46,21.7,45.3,20.9,44.4,20.7z"/>
		
			<circle fill="none"   stroke-linecap="round" stroke-linejoin="round" stroke-miterlimit="10" cx="24" cy="24" r="8"/>
	</g>
</g>
<g id="processor">
	
		<rect x="13" y="13" fill="none"   stroke-linecap="round" stroke-miterlimit="10" width="22" height="22"/>
	<path fill="none"   stroke-linecap="round" stroke-miterlimit="10" d="M37,40H11
		c-1.6568546,0-3-1.3431473-3-3V11c0-1.6568546,1.3431454-3,3-3h26c1.6568527,0,3,1.3431454,3,3v26
		C40,38.6568527,38.6568527,40,37,40z"/>
	
		<line fill="none"   stroke-linecap="round" stroke-miterlimit="10" x1="14" y1="2" x2="14" y2="8"/>
	
		<line fill="none"   stroke-linecap="round" stroke-miterlimit="10" x1="24" y1="2" x2="24" y2="8"/>
	
		<line fill="none"   stroke-linecap="round" stroke-miterlimit="10" x1="34" y1="2" x2="34" y2="8"/>
	
		<line fill="none"   stroke-linecap="round" stroke-miterlimit="10" x1="14" y1="40" x2="14" y2="46"/>
	
		<line fill="none"   stroke-linecap="round" stroke-miterlimit="10" x1="24" y1="40" x2="24" y2="46"/>
	
		<line fill="none"   stroke-linecap="round" stroke-miterlimit="10" x1="34" y1="40" x2="34" y2="46"/>
	
		<line fill="none"   stroke-linecap="round" stroke-miterlimit="10" x1="46" y1="14" x2="40" y2="14"/>
	
		<line fill="none"   stroke-linecap="round" stroke-miterlimit="10" x1="46" y1="24" x2="40" y2="24"/>
	
		<line fill="none"   stroke-linecap="round" stroke-miterlimit="10" x1="46" y1="34" x2="40" y2="34"/>
	
		<line fill="none"   stroke-linecap="round" stroke-miterlimit="10" x1="8" y1="14" x2="2" y2="14"/>
	
		<line fill="none"   stroke-linecap="round" stroke-miterlimit="10" x1="8" y1="24" x2="2" y2="24"/>
	
		<line fill="none"   stroke-linecap="round" stroke-miterlimit="10" x1="8" y1="34" x2="2" y2="34"/>
	
		<line fill="none"   stroke-linecap="round" stroke-miterlimit="10" x1="17" y1="17" x2="17" y2="21"/>
	
		<line fill="none"   stroke-linecap="round" stroke-miterlimit="10" x1="21" y1="17" x2="21" y2="21"/>
	
		<line fill="none"   stroke-linecap="round" stroke-miterlimit="10" x1="25" y1="17" x2="25" y2="21"/>
	
		<rect x="23" y="27" fill="none"   stroke-linecap="round" stroke-miterlimit="10" width="8" height="4"/>
</g>
<g id="image-file">
	<path fill="none"   stroke-linecap="round" stroke-linejoin="round" stroke-miterlimit="10" d="
		M6,4c0-1.1045694,0.8954306-2,2-2h22.0000134L42,14v30c0,1.1045685-0.8954315,2-2,2H8c-1.1045694,0-2-0.8954315-2-2V4z"/>
	
		<polyline fill="none"   stroke-linecap="round" stroke-linejoin="round" stroke-miterlimit="10" points="
		30,3 30,14 42,14 	"/>
	
		<polyline fill="none"   stroke-linecap="round" stroke-linejoin="round" stroke-miterlimit="10" points="
		6,42 18.8571434,30.1000004 26,35 35.5714302,25 42,30.1000004 	"/>
	
		<circle fill="none"   stroke-linecap="round" stroke-linejoin="round" stroke-miterlimit="10" cx="18.5" cy="20.5" r="4.5"/>
</g>
<g id="thermometer-3">
	<g>
		
			<line fill="none"   stroke-linejoin="round" stroke-miterlimit="10" x1="24" y1="24" x2="24" y2="35"/>
		<path fill="none"   stroke-linecap="round" stroke-linejoin="round" stroke-miterlimit="10" d="
			M28,31.1V7c0-2.2-1.8-4-4-4h0c-2.2,0-4,1.8-4,4v24.1c-2.7,1.6-4.4,4.7-3.9,8.2c0.5,3.5,3.5,6.3,7,6.7c4.8,0.5,8.9-3.2,8.9-7.9
			C32,35,30.4,32.5,28,31.1z"/>
		<circle cx="24" cy="38" r="5"/>
		
			<line fill="none"   stroke-linecap="round" stroke-linejoin="round" stroke-miterlimit="10" x1="33" y1="6" x2="35" y2="6"/>
		
			<line fill="none"   stroke-linecap="round" stroke-linejoin="round" stroke-miterlimit="10" x1="33" y1="11" x2="35" y2="11"/>
		
			<line fill="none"   stroke-linecap="round" stroke-linejoin="round" stroke-miterlimit="10" x1="33" y1="16" x2="35" y2="16"/>
		
			<line fill="none"   stroke-linecap="round" stroke-linejoin="round" stroke-miterlimit="10" x1="33" y1="21" x2="35" y2="21"/>
	</g>
</g>
<g id="drop">
	<g>
		<path fill="none"   stroke-linecap="round" stroke-miterlimit="10" d="M40.4,34.5
			c0,3-2.4,5.5-5.5,5.5s-5.5-2.4-5.5-5.5s5.5-9.8,5.5-9.8S40.4,31.5,40.4,34.5z"/>
		<path fill="none"   stroke-linecap="round" stroke-miterlimit="10" d="M29.5,16.8
			c0,3-2.4,5.5-5.5,5.5s-5.5-2.4-5.5-5.5S24,7,24,7S29.5,13.8,29.5,16.8z"/>
		<path fill="none"   stroke-linecap="round" stroke-miterlimit="10" d="M18.6,34.5
			c0,3-2.4,5.5-5.5,5.5s-5.5-2.4-5.5-5.5s5.5-9.8,5.5-9.8S18.6,31.5,18.6,34.5z"/>
	</g>
</g>
<g id="graph-smooth">
	<path fill="none"   stroke-linecap="round" stroke-linejoin="round" stroke-miterlimit="10" d="
		M3,3v41c0,0.5522842,0.4477153,1,1,1h41"/>
	<g>
		<path fill="none"   stroke-linecap="round" stroke-linejoin="round" stroke-miterlimit="10" d="
			M3,17c7.1633854,0,7.1633854,12,14.3267708,12c7.1683064,0,7.1683064-12,14.3366146-12S38.8316917,29,46,29"/>
	</g>
</g>
<g id="stop">
	<g>
		<path fill="none"   stroke-linecap="round" stroke-linejoin="round" stroke-miterlimit="10" d="
			M18,5.9822998C10.4501343,8.4960327,5,15.6055908,5,24c0,10.4934082,8.5065918,19,19,19s19-8.5065918,19-19
			c0-8.3944092-5.4501343-15.5039673-13-18.0177002"/>
		<path fill="none"   stroke-linecap="round" stroke-linejoin="round" stroke-miterlimit="10" d="
			M18,6"/>
		<path fill="none"   stroke-linecap="round" stroke-linejoin="round" stroke-miterlimit="10" d="
			M30,6"/>
		<path fill="none"   stroke-linecap="round" stroke-linejoin="round" stroke-miterlimit="10" d="
			M18,6"/>
		<path fill="none"   stroke-linecap="round" stroke-linejoin="round" stroke-miterlimit="10" d="
			M30,6"/>
	</g>
	
		<line fill="none"   stroke-linecap="round" stroke-linejoin="round" stroke-miterlimit="10" x1="24" y1="4" x2="24" y2="23"/>
</g>
<g id="horizontal-arw">
	
		<polyline fill="none"   stroke-linecap="round" stroke-linejoin="round" stroke-miterlimit="10" points="
		37.7660217,11 45,18 37.7660217,25.4679585 	"/>
	
		<polyline fill="none"   stroke-linecap="round" stroke-linejoin="round" stroke-miterlimit="10" points="
		11,37 4,30 11,22.5320415 	"/>
	
		<line fill="none"   stroke-linecap="round" stroke-linejoin="round" stroke-miterlimit="10" x1="44" y1="18" x2="12" y2="18"/>
	
		<line fill="none"   stroke-linecap="round" stroke-linejoin="round" stroke-miterlimit="10" x1="36" y1="30" x2="5" y2="30"/>
</g>
<g id="side-arrow">
		<line fill="none"   stroke-linecap="round" stroke-linejoin="round" stroke-miterlimit="10" x1="5" y1="24" x2="42" y2="24"/>
	
		<polyline fill="none"   stroke-linecap="round" stroke-linejoin="round" stroke-miterlimit="10" points="
		33.5,15.5 42,24 33.5,32.49999981 	"/>
	
		<polyline fill="none"   stroke-linecap="round" stroke-linejoin="round" stroke-miterlimit="10" points="
		13.499999,32.4999962 5.0000029,24 13.499999,15.5000048 	"/>
</g>
<g id="thunderstorms">
	<g>
		<path fill="none"   stroke-linecap="round" stroke-linejoin="round" stroke-miterlimit="10" d="
			M8.8,19.4c-2.7-3.2-2.3-7.9,0.8-10.6s7.9-2.3,10.6,0.8"/>
		
			<line fill="none"   stroke-linecap="round" stroke-linejoin="round" stroke-miterlimit="10" x1="5.1" y1="8.5" x2="2.7" y2="7.4"/>
		
			<line fill="none"   stroke-linecap="round" stroke-linejoin="round" stroke-miterlimit="10" x1="17.3" y1="3.9" x2="18.1" y2="1.5"/>
		
			<line fill="none"   stroke-linecap="round" stroke-linejoin="round" stroke-miterlimit="10" x1="3.8" y1="16" x2="1.3" y2="16.3"/>
		
			<line fill="none"   stroke-linecap="round" stroke-linejoin="round" stroke-miterlimit="10" x1="10.2" y1="3.9" x2="9.2" y2="1.5"/>
		<path fill="none"   stroke-linecap="round" stroke-linejoin="round" stroke-miterlimit="10" d="
			M35.5,36c5.2,0,9.5-4.3,9.5-9.5c0-3.2-1.6-6-4-7.8c0-0.2,0-0.5,0-0.7c0-6.6-5.4-12-12-12s-12,5.4-12,12c0,1.2,0.2,2.4,0.5,3.5
			C16,20,13.9,19,11.5,19C6.8,19,3,22.8,3,27.5"/>
		<path fill="none"   stroke-linecap="round" stroke-linejoin="round" stroke-miterlimit="10" d="
			M31.7,23.3c0.8,0.8,1.3,1.9,1.3,3.2s-0.5,2.4-1.3,3.2c-0.8,0.8-1.9,1.3-3.2,1.3H3"/>
		
			<line fill="none"   stroke-linecap="round" stroke-linejoin="round" stroke-miterlimit="10" x1="29" y1="34" x2="9" y2="34"/>
		<path fill="none"   stroke-linecap="round" stroke-linejoin="round" stroke-miterlimit="10" d="
			M31,40c0-1.7-1.3-3-3-3H13"/>
	</g>
</g>
<g id="designpalet">
	<g id="design-palet">
		<path fill="none"   stroke-linecap="round" stroke-linejoin="round" stroke-miterlimit="10" d="
			M36.4430122,39.6579514c-2.6234055,2.0847588-5.4396534,4.0341339-8.5168629,4.3422928
			C24.6000004,44.3333321,22.2435093,42.0704613,23,39c0.708334-2.875,4.0847969-4.8283348,2-7c-3-3.125-9.2929916,3.9159393-15,3
			C-0.125,33.375,0.2,17.4666672,11.5569887,8.3420477c9.4718637-7.6100407,22.7946739-6.6770086,29.6667595,1.9706402
			S45.9554253,32.0986595,36.4430122,39.6579514z"/>
		
			<circle fill="none"   stroke-linecap="round" stroke-linejoin="round" stroke-miterlimit="10" cx="13.2666702" cy="24" r="4.3333335"/>
		
			<circle fill="none"   stroke-linecap="round" stroke-linejoin="round" stroke-miterlimit="10" cx="19.2666702" cy="14" r="3"/>
		
			<circle fill="none"   stroke-linecap="round" stroke-linejoin="round" stroke-miterlimit="10" cx="29.2666702" cy="12" r="1.9166666"/>
		
			<circle fill="none"   stroke-linecap="round" stroke-linejoin="round" stroke-miterlimit="10" cx="37.2666626" cy="16" r="1.1041666"/>
	</g>
</g>
<g id="channel">
	<path fill="none"   stroke-linecap="round" stroke-linejoin="round" stroke-miterlimit="10" d="
		M43.703083,17.9039211c1.6836014,5.4221764,1.0097656,11.013361-1.4406891,15.6698513s-6.6775246,8.3782768-12.1003933,10.0616646
		c-5.4228668,1.6833839-11.0147648,1.0096321-15.6718473-1.4405098S6.1108055,35.5182533,4.4272056,30.0960789
		s-1.0097632-11.013361,1.440691-15.6698503s6.677525-8.3782787,12.1003914-10.0616646s11.0147667-1.0096345,15.6718483,1.4405074"
		/>
	
		<circle fill="none"   stroke-linecap="round" stroke-linejoin="round" stroke-miterlimit="10" cx="24" cy="24" r="10.5"/>
	
		<circle fill="none"   stroke-linecap="round" stroke-linejoin="round" stroke-miterlimit="10" cx="29.5384521" cy="21.6923065" r="1"/>
	
		<polyline fill="none"   stroke-linecap="round" stroke-linejoin="round" stroke-miterlimit="10" points="
		41,20 42.7584152,16.5236454 46.4970665,17.4581909 	"/>
	
		<line fill="none"   stroke-linecap="round" stroke-linejoin="round" stroke-miterlimit="10" x1="24" y1="11" x2="24" y2="13"/>
	
		<line fill="none"   stroke-linecap="round" stroke-linejoin="round" stroke-miterlimit="10" x1="24" y1="35" x2="24" y2="37"/>
	
		<line fill="none"   stroke-linecap="round" stroke-linejoin="round" stroke-miterlimit="10" x1="37" y1="24" x2="35" y2="24"/>
	
		<line fill="none"   stroke-linecap="round" stroke-linejoin="round" stroke-miterlimit="10" x1="13" y1="24" x2="11" y2="24"/>
	
		<line fill="none"   stroke-linecap="round" stroke-linejoin="round" stroke-miterlimit="10" x1="33.1923866" y1="14.8076115" x2="31.7781754" y2="16.2218246"/>
	
		<line fill="none"   stroke-linecap="round" stroke-linejoin="round" stroke-miterlimit="10" x1="16.2218246" y1="31.7781754" x2="14.8076115" y2="33.1923866"/>
	
		<line fill="none"   stroke-linecap="round" stroke-linejoin="round" stroke-miterlimit="10" x1="33.1923866" y1="33.1923866" x2="31.7781754" y2="31.7781754"/>
	
		<line fill="none"   stroke-linecap="round" stroke-linejoin="round" stroke-miterlimit="10" x1="16.2218246" y1="16.2218246" x2="14.8076115" y2="14.8076115"/>
</g>
<g id="study-lamp">
	<path fill="none"   stroke-linecap="round" stroke-linejoin="round" stroke-miterlimit="10" d="
		M2.1496975,12.5397167c2.7024705-2.7645178,7.1343403-2.8148165,9.8988571-0.1123457s2.8148165,7.1343412,0.1123457,9.8988581
		L2.1496975,12.5397167z"/>
	<path fill="none"   stroke-linecap="round" stroke-linejoin="round" stroke-miterlimit="10" d="
		M9.2998276,19.5293694c-1.1582022,1.1847935-3.0575747,1.2063503-4.2423677,0.0481472
		c-1.1847932-1.1582012-1.2063498-3.0575733-0.0481482-4.2423668"/>
	
		<polyline fill="none"   stroke-linecap="round" stroke-linejoin="round" stroke-miterlimit="10" points="
		10.6183834,11.0292978 12.7154932,8.8840399 15.5758362,11.6801863 13.4787264,13.8254442 	"/>
	
		<line fill="none"   stroke-linecap="round" stroke-linejoin="round" stroke-miterlimit="10" x1="17" y1="8" x2="14.1456642" y2="10.2821131"/>
	
		<line fill="none"   stroke-linecap="round" stroke-linejoin="round" stroke-miterlimit="10" x1="14" y1="5" x2="31" y2="22"/>
	
		<circle fill="none"   stroke-linecap="round" stroke-linejoin="round" stroke-miterlimit="10" cx="31" cy="24" r="2"/>
	
		<line fill="none"   stroke-linecap="round" stroke-linejoin="round" stroke-miterlimit="10" x1="31" y1="26" x2="31" y2="42"/>
	<path fill="none"   stroke-linecap="round" stroke-linejoin="round" stroke-miterlimit="10" d="
		M34,48h-7v-1.5000038C27,44.5670013,28.5670013,43,30.4999962,43h0.0000076C32.4329987,43,34,44.5670013,34,46.4999962V48z"/>
</g>
<g id="slider">
	<path fill="none"   stroke-linecap="round" stroke-linejoin="round" stroke-miterlimit="10" d="
		M37,39H11c-1.6568546,0-3-1.3431473-3-3V12c0-1.6568546,1.3431454-3,3-3h26c1.6568527,0,3,1.3431454,3,3v24
		C40,37.6568527,38.6568527,39,37,39z"/>
	
		<polygon fill="none"   stroke-linecap="round" stroke-linejoin="round" stroke-miterlimit="10" points="
		21,17.5 30,24 21,30.5 	"/>
	<path fill="none"   stroke-linecap="round" stroke-linejoin="round" stroke-miterlimit="10" d="
		M43,10l1.683773-0.5612574C45.3313026,9.2228985,46,9.7048683,46,10.3874254v27.2251511
		c0,0.6825562-0.6686974,1.1645241-1.316227,0.9486809L43,38"/>
	<path fill="none"   stroke-linecap="round" stroke-linejoin="round" stroke-miterlimit="10" d="
		M5,38l-1.6837723,0.5612564C2.6686966,38.7770996,2,38.2951317,2,37.6125755V10.3874254
		c0-0.6825571,0.6686966-1.1645269,1.3162277-0.9486828L5,10"/>
</g>
<g id="round-chart">
	<g>
		<path fill="none"   stroke-linecap="round" stroke-linejoin="round" stroke-miterlimit="10" d="
			M26,26h-4v-4V2.0946045C10.7876587,3.1057129,2,12.524353,2,24c0,12.1502686,9.8497314,22,22,22
			c11.475647,0,20.8942871-8.7876587,21.9053955-20H26z"/>
	</g>
	<path fill="none"   stroke-linecap="round" stroke-linejoin="round" stroke-miterlimit="10" d="
		M26,10h15.0371094c-1.2401123-1.5162964-2.6807861-2.8604126-4.2780762-4H26V10z"/>
	<path fill="none"   stroke-linecap="round" stroke-linejoin="round" stroke-miterlimit="10" d="
		M36.7590332,6C33.670166,3.7963257,29.9898682,2.3710327,26,2.0112305V6H36.7590332z"/>
	<path fill="none"   stroke-linecap="round" stroke-linejoin="round" stroke-miterlimit="10" d="
		M26,22h19.9117432c-0.1185913-1.3735962-0.3637695-2.7102661-0.7232056-4H26V22z"/>
	<path fill="none"   stroke-linecap="round" stroke-linejoin="round" stroke-miterlimit="10" d="
		M26,10v4h17.6365967c-0.7233276-1.4294434-1.5943604-2.7709961-2.5994873-4H26z"/>
	<path fill="none"   stroke-linecap="round" stroke-linejoin="round" stroke-miterlimit="10" d="
		M26,18h19.1885376c-0.3885498-1.3942871-0.9103394-2.7320557-1.5519409-4H26V18z"/>
</g> 
<g id="community-3">
	<path fill="none"   stroke-miterlimit="10" d="M30,47H18c-1.1045704,0-2-0.8954315-2-2V25.9999924
		C16,21.5817184,19.5817184,18,23.9999924,18h0.0000153C28.4182816,18,32,21.5817184,32,25.9999924V45
		C32,46.1045685,31.1045704,47,30,47z"/>
	<path fill="none"   stroke-miterlimit="10" d="M36,23.0000076h1.0000076
		C41.4182816,23.0000076,45,26.5817261,45,31v14c0,1.1045685-0.8954315,2-2,2h-7"/>
	<path fill="none"   stroke-miterlimit="10" d="M12,47H5c-1.1045694,0-2-0.8954315-2-2V31
		c0-4.4182739,3.5817184-7.9999924,7.9999924-7.9999924H12"/>
	<circle fill="none"   stroke-miterlimit="10" cx="24" cy="9" r="6"/>
	<circle fill="none"   stroke-miterlimit="10" cx="37" cy="14" r="5"/>
	<circle fill="none"   stroke-miterlimit="10" cx="11" cy="14" r="5"/>
</g>
<g id="currency-2">
	<g>
		
			<rect x="1" y="11" fill="none"   stroke-linecap="round" stroke-miterlimit="10" width="46" height="32"/>
		
			<rect x="5" y="15" fill="none"   stroke-linecap="round" stroke-miterlimit="10" width="38" height="24"/>
		<path fill="none"   stroke-linecap="round" stroke-miterlimit="10" d="M11,15
			c0,3.3137093-2.6862917,6-6,6"/>
		<path fill="none"   stroke-linecap="round" stroke-miterlimit="10" d="M42,21
			c-3.3137093,0-6-2.6862907-6-6"/>
		<path fill="none"   stroke-linecap="round" stroke-miterlimit="10" d="M36,39
			c0-3.3137093,2.6862907-6,6-6"/>
		<path fill="none"   stroke-linecap="round" stroke-miterlimit="10" d="M5,33
			c3.3137083,0,6,2.6862907,6,6"/>
		<polyline fill="none"   stroke-miterlimit="10" points="19,11 42.1357689,2.0950453 
			45.2830544,10.7364597 		"/>
		<polyline fill="none"   stroke-linecap="round" stroke-miterlimit="10" points="
			29.916666,10.833333 39.7461624,7.2224011 41.0114822,10.696557 		"/>
	</g>
	<path fill="none"   stroke-linecap="round" stroke-miterlimit="10" d="M27.3162823,19.946579
		c-0.7158012-0.2334423-1.4782391-0.3635082-2.2719593-0.3635082c-4.0466003,0-7.3270435,3.2804222-7.3270435,7.3270454
		s3.2804432,7.3270435,7.3270435,7.3270435c0.7937202,0,1.5561581-0.1300659,2.2719593-0.3635063"/>
	
		<line fill="none"   stroke-linecap="round" stroke-miterlimit="10" x1="15" y1="25" x2="25" y2="25"/>
	
		<line fill="none"   stroke-linecap="round" stroke-miterlimit="10" x1="15" y1="28" x2="25" y2="28"/>
</g>
<g id="progress-bar-1">
	<path fill="none"   stroke-linecap="round" stroke-miterlimit="10" d="M34,45h4
		c1.1045685,0,2-0.8954315,2-2V6c0-1.1045694-0.8954315-2-2-2h-4c-1.1045685,0-2,0.8954306-2,2v37
		C32,44.1045685,32.8954315,45,34,45z"/>
	<path fill="none"   stroke-linecap="round" stroke-miterlimit="10" d="M21,45h4
		c1.1045704,0,2-0.8954315,2-2V24c0-1.1045704-0.8954296-2-2-2h-4c-1.1045704,0-2,0.8954296-2,2v19
		C19,44.1045685,19.8954296,45,21,45z"/>
	<path fill="none"   stroke-linecap="round" stroke-miterlimit="10" d="M8,45h4
		c1.1045694,0,2-0.8954315,2-2v-7c0-1.1045685-0.8954306-2-2-2H8c-1.1045694,0-2,0.8954315-2,2v7C6,44.1045685,6.8954306,45,8,45z"
		/>
</g>
<g id="network-tred">
	<path fill="none"   stroke-linecap="round" stroke-miterlimit="10" d="M17.9080029,20.0919971
		c-3.3645163-3.3645172-3.3645163-8.8194771,0-12.1839943"/>
	<path fill="none"   stroke-linecap="round" stroke-miterlimit="10" d="M30.0919971,7.9080033
		c3.3645153,3.3645167,3.3645153,8.8194771,0,12.1839943"/>
	<path fill="none"   stroke-linecap="round" stroke-miterlimit="10" d="M14.8076115,23.1923885
		c-5.0768156-5.0768166-5.0768156-13.3079605,0-18.3847771"/>
	<path fill="none"   stroke-linecap="round" stroke-miterlimit="10" d="M33.1923866,4.8076119
		c5.0768166,5.0768161,5.0768166,13.3079605,0,18.3847771"/>
	<circle fill="none"   stroke-linecap="round" stroke-miterlimit="10" cx="24" cy="14" r="4"/>
	
		<line fill="none"   stroke-linecap="round" stroke-miterlimit="10" x1="24" y1="18" x2="24" y2="46"/>
	<path fill="none"   stroke-linecap="round" stroke-miterlimit="10" d="M36.5093918,1.9742801
		c6.6416206,6.6416216,6.6416206,17.4098186,0,24.0514412"/>
	<path fill="none"   stroke-linecap="round" stroke-miterlimit="10" d="M11.4906082,26.0257206
		c-6.6416216-6.6416225-6.6416216-17.4098186,0-24.0514412"/>
</g>
<g id="storager">
	
		<ellipse fill="none"   stroke-linecap="round" stroke-miterlimit="10" cx="24" cy="7.194458" rx="17" ry="5.1944447"/>
	<path fill="none"   stroke-linecap="round" stroke-miterlimit="10" d="M41,15.1944447
		c0,2.8688126-7.6111603,5.1944447-17,5.1944447S7,18.0632572,7,15.1944447"/>
	<path fill="none"   stroke-linecap="round" stroke-miterlimit="10" d="M41,23.1944447
		c0,2.8688126-7.6111603,5.1944447-17,5.1944447S7,26.0632572,7,23.1944447"/>
	<path fill="none"   stroke-linecap="round" stroke-miterlimit="10" d="M41,31.1944447
		c0,2.8688107-7.6111603,5.1944447-17,5.1944447s-17-2.325634-17-5.1944447"/>
	<path fill="none"   stroke-linecap="round" stroke-miterlimit="10" d="M41,39.1944427
		c0,2.8688126-7.6111603,5.1944466-17,5.1944466s-17-2.325634-17-5.1944466"/>
	
		<line fill="none"   stroke-linecap="round" stroke-miterlimit="10" x1="7" y1="7" x2="7" y2="40"/>
	
		<line fill="none"   stroke-linecap="round" stroke-miterlimit="10" x1="41" y1="7" x2="41" y2="40"/>
</g>
<g id="wifi-mob">
	
		<rect x="13" y="5" fill="none"   stroke-linecap="round" stroke-linejoin="round" stroke-miterlimit="10" width="22" height="34"/>
	<path fill="none"   stroke-linecap="round" stroke-linejoin="round" stroke-miterlimit="10" d="
		M35,47H13c-2.2091389,0-4-1.7908592-4-4V5c0-2.2091391,1.7908611-4,4-4h22c2.2091408,0,4,1.7908609,4,4v38
		C39,45.2091408,37.2091408,47,35,47z"/>
	
		<circle fill="none"   stroke-linecap="round" stroke-linejoin="round" stroke-miterlimit="10" cx="24" cy="43" r="1"/>
	<path fill="none"   stroke-linecap="round" stroke-linejoin="round" stroke-miterlimit="10" d="
		M21.8786793,25.9497471c1.1715736-1.1715717,3.0710678-1.1715717,4.2426414,0"/>
	<path fill="none"   stroke-linecap="round" stroke-linejoin="round" stroke-miterlimit="10" d="
		M19.4038067,23.4748745c2.5384064-2.5384083,6.6539803-2.5384083,9.1923866,0"/>
	<path fill="none"   stroke-linecap="round" stroke-linejoin="round" stroke-miterlimit="10" d="
		M16.9289322,21c3.9052429-3.9052429,10.2368927-3.9052429,14.1421356,0"/>
</g>
<g id="plug">
	<path fill="none"   stroke-linecap="round" stroke-miterlimit="10" d="M23.6213131,26.7426338
		l0.0000134,0.0000134c3.5147152,3.5147152,3.5147152,9.2131939,0,12.727911l-4.2426472,4.2426453L6.6507578,30.985281
		l4.2426472-4.2426472C14.4081202,23.2279186,20.1065998,23.2279186,23.6213131,26.7426338z"/>
	
		<line fill="none"   stroke-linecap="round" stroke-miterlimit="10" x1="10.8933983" y1="46.5416298" x2="16.5502529" y2="40.8847771"/>
	
		<line fill="none"   stroke-linecap="round" stroke-miterlimit="10" x1="3.8223305" y1="39.470562" x2="9.4791851" y2="33.8137093"/>
	<path fill="none"   stroke-linecap="round" stroke-miterlimit="10" d="M21.5,24.6213207
		l0.7071095-0.7071095c1.1715717-1.1715717,3.071064-1.1715717,4.2426357,0l0.0000038,0.0000038
		c1.1715717,1.1715717,1.1715717,3.0710659,0,4.2426376l-0.7071075,0.7071075"/>
	<path fill="none"   stroke-linecap="round" stroke-miterlimit="10" d="M26.4497471,23.9142132
		L38.117012,12.2469482c2.1478844-2.1478815,2.1478844-5.6302857,0-7.7781672l-0.0000076-0.0000076
		c-2.1478806-2.1478817-5.6302834-2.1478817-7.7781658,0L18.318018,16.4895954
		c-1.3668346,1.3668327-3.5829096,1.3668327-4.9497433,0l-0.0000048-0.0000057
		c-1.3668337-1.3668337-1.3668337-3.5829086,0-4.9497423L20,5"/>
</g>
<g id="pi-hole">
	<path
		d="M21.2748668239 14.6316587084C10.9255489148 12.5610923232 9.97765754791 6.32119765005 8.84320310646 0.164039847374C24.5725363323 1.27524201991 21.9724932037 11.444517514 23.3108216677 14.2923329011C26.8448458768 3.37376549481 31.6494330104 5.56211548386 33.2129662013 5.28477490882C32.60868117 13.0163191084 28.2184570224 14.1046079338 23.3147626748 14.2919045485C21.1845242157 11.0591849517 17.5321689726 7.94932787943 14.0564813692 4.79121002387C16.919734343 7.97993465127 20.7004787308 10.9851611593 21.2748668239 14.6316587084C21.2748668239 14.6316587084 21.2748668239 14.6316587084 21.2748668239 14.6316587084"
		id="path3892" />
	<path
		d="M23.1668382552 15.4134896112C23.1668382552 15.4134896112 24.5424154082 15.4134896112 24.5424154082 15.4134896112C27.8981463087 15.4134896112 28.0010571953 16.3864183491 33.2909879509 21.5278639029C36.154993539 24.3114798128 40.2342451679 27.3390847451 40.2342451679 30.625439969C40.2342451679 30.625439969 40.2342451679 31.748197824 40.2342451679 31.748197824C40.2342451679 35.1039287244 36.8757294309 37.8880569135 34.2943711393 40.6058340529C31.4215151114 43.6305100019 27.9830375037 47.7890313797 24.0625362788 47.7890313797C24.0625362788 47.7890313797 23.7775935356 47.7890313797 23.7775935356 47.7890313797C20.4218634527 47.7890313797 16.948235048 43.6941988349 14.8014627793 41.5804151635C11.1845381792 38.0190723063 7.99851200946 34.0532251119 7.99851228195 32.271700793C7.99851228195 32.271700793 7.99851255444 31.1053201884 7.99851255444 31.1053201884C7.99851309942 28.1185637961 12.1876082778 24.2234849691 14.592766248 21.8332416794C19.7689170794 16.6891892242 20.6868414784 15.4134896112 23.1668382552 15.4134896112C23.1668382552 15.4134896112 23.1668382552 15.4134896112 23.1668382552 15.4134896112"
		id="rect4749" />
	<path
		d="M14.955049246 25.4763614559C19.4115781202 26.7716483891 20.5626388533 29.2639382307 20.4518470424 32.2819191271C20.3516760317 35.0105930981 18.8048624878 35.3066059757 17.8343242952 40.8761185276C18.7990631064 35.7242715272 23.2691842723 35.2931749973 24.4981010818 35.4338528469C28.4917116262 35.8910156659 30.4973744229 37.8358480383 33.8012125353 38.0404708604C29.6162324844 37.2467215651 28.2631997014 35.3413428619 27.868161629 32.2819191271C27.3411708019 28.2005666087 30.3568409925 27.0843076142 30.2675572762 23.0333400617C29.7299230323 26.5720693368 26.981357371 27.8030461624 24.3781310269 28.0938844756C21.2802915331 28.4399835397 19.6450779545 25.9370802551 14.955049246 25.4763614559C14.955049246 25.4763614559 14.955049246 25.4763614559 14.955049246 25.4763614559"
		id="path4784" />
</g>
</svg>