<?xml version='1.0' encoding='utf8'?>
<svg xmlns="http://www.w3.org/2000/svg" enable-background="new 0 0 48 48" version="1.1" viewBox="0 0 48 48" x="0px" xml:space="preserve" xmlns:xlink="http://www.w3.org/1999/xlink" y="0px">
<g id="wind">
	<g>
		<path fill="none"   stroke-linecap="round" stroke-linejoin="round" stroke-miterlimit="10" d="
			M35.5,36c5.2,0,9.5-4.3,9.5-9.5c0-3.2-1.6-6-4-7.8c0-0.2,0-0.5,0-0.7c0-6.6-5.4-12-12-12s-12,5.4-12,12c0,1.2,0.2,2.4,0.5,3.5
			C16,20,13.9,19,11.5,19C6.8,19,3,22.8,3,27.5"/>
		<path fill="none"   stroke-linecap="round" stroke-linejoin="round" stroke-miterlimit="10" d="
			M31.7,23.3c0.8,0.8,1.3,1.9,1.3,3.2s-0.5,2.4-1.3,3.2c-0.8,0.8-1.9,1.3-3.2,1.3H3"/>
		
			<line fill="none"   stroke-linecap="round" stroke-linejoin="round" stroke-miterlimit="10" x1="29" y1="34" x2="9" y2="34"/>
		<path fill="none"   stroke-linecap="round" stroke-linejoin="round" stroke-miterlimit="10" d="
			M31,40c0-1.7-1.3-3-3-3H13"/>
	</g>
</g>
<g id="setting-roll">
	<g>
		<path fill="none"   stroke-linecap="round" stroke-linejoin="round" stroke-miterlimit="10" d="
			M44.4,20.7l-2.8-0.5c-0.5-2.1-1.3-4.2-2.5-5.9l1.6-2.3c0.6-0.8,0.5-1.9-0.2-2.6l-0.9-0.9l-0.9-0.9c-0.7-0.7-1.8-0.8-2.6-0.2
			l-2.3,1.6c-1.8-1.2-3.8-2-5.9-2.5l-0.5-2.8c-0.2-1-1-1.6-2-1.6H24h-1.3c-1,0-1.8,0.7-2,1.6l-0.5,2.8C18,6.9,16,7.7,14.3,8.9
			l-2.3-1.6c-0.8-0.6-1.9-0.5-2.6,0.2L8.4,8.4L7.5,9.4c-0.7,0.7-0.8,1.8-0.2,2.6l1.6,2.3c-1.2,1.8-2,3.8-2.5,5.9l-2.8,0.5
			c-1,0.2-1.6,1-1.6,2V24v1.3c0,1,0.7,1.8,1.6,2l2.8,0.5C6.9,30,7.7,32,8.9,33.7l-1.6,2.3c-0.6,0.8-0.5,1.9,0.2,2.6l0.9,0.9l0.9,0.9
			c0.7,0.7,1.8,0.8,2.6,0.2l2.3-1.6c1.8,1.2,3.8,2,5.9,2.5l0.5,2.8c0.2,1,1,1.6,2,1.6H24h1.3c1,0,1.8-0.7,2-1.6l0.5-2.8
			c2.1-0.5,4.2-1.3,5.9-2.5l2.3,1.6c0.8,0.6,1.9,0.5,2.6-0.2l0.9-0.9l0.9-0.9c0.7-0.7,0.8-1.8,0.2-2.6l-1.6-2.3
			c1.2-1.8,2-3.8,2.5-5.9l2.8-0.5c1-0.2,1.6-1,1.6-2V24v-1.3C46,21.7,45.3,20.9,44.4,20.7z"/>
		
			<circle fill="none"   stroke-linecap="round" stroke-linejoin="round" stroke-miterlimit="10" cx="24" cy="24" r="8"/>
	</g>
</g>
<g id="processor">
	
		<rect x="13" y="13" fill="none"   stroke-linecap="round" stroke-miterlimit="10" width="22" height="22"/>
	<path fill="none"   stroke-linecap="round" stroke-miterlimit="10" d="M37,40H11
		c-1.6568546,0-3-1.3431473-3-3V11c0-1.6568546,1.3431454-3,3-3h26c1.6568527,0,3,1.3431454,3,3v26
		C40,38.6568527,38.6568527,40,37,40z"/>
	
		<line fill="none"   stroke-linecap="round" stroke-miterlimit="10" x1="14" y1="2" x2="14" y2="8"/>
	
		<line fill="none"   stroke-linecap="round" stroke-miterlimit="10" x1="24" y1="2" x2="24" y2="8"/>
	
		<line fill="none"   stroke-linecap="round" stroke-miterlimit="10" x1="34" y1="2" x2="34" y2="8"/>
	
		<line fill="none"   stroke-linecap="round" stroke-miterlimit="10" x1="14" y1="40" x2="14" y2="46"/>
	
		<line fill="none"   stroke-linecap="round" stroke-miterlimit="10" x1="24" y1="40" x2="24" y2="46"/>
	
		<line fill="none"   stroke-linecap="round" stroke-miterlimit="10" x1="34" y1="40" x2="34" y2="46"/>
	
		<line fill="none"   stroke-linecap="round" stroke-miterlimit="10" x1="46" y1="14" x2="40" y2="14"/>
	
		<line fill="none"   stroke-linecap="round" stroke-miterlimit="10" x1="46" y1="24" x2="40" y2="24"/>
	
		<line fill="none"   stroke-linecap="round" stroke-miterlimit="10" x1="46" y1="34" x2="40" y2="34"/>
	
		<line fill="none"   stroke-linecap="round" stroke-miterlimit="10" x1="8" y1="14" x2="2" y2="14"/>
	
		<line fill="none"   stroke-linecap="round" stroke-miterlimit="10" x1="8" y1="24" x2="2" y2="24"/>
	
		<line fill="none"   stroke-linecap="round" stroke-miterlimit="10" x1="8" y1="34" x2="2" y2="34"/>
	
		<line fill="none"   stroke-linecap="round" stroke-miterlimit="10" x1="17" y1="17" x2="17" y2="21"/>
	
		<line fill="none"   stroke-linecap="round" stroke-miterlimit="10" x1="21" y1="17" x2="21" y2="21"/>
	
		<line fill="none"   stroke-linecap="round" stroke-miterlimit="10" x1="25" y1="17" x2="25" y2="21"/>
	
		<rect x="23" y="27" fill="none"   stroke-linecap="round" stroke-miterlimit="10" width="8" height="4"/>
</g>
<g id="image-file">
	<path fill="none"   stroke-linecap="round" stroke-linejoin="round" stroke-miterlimit="10" d="
		M6,4c0-1.1045694,0.8954306-2,2-2h22.0000134L42,14v30c0,1.1045685-0.8954315,2-2,2H8c-1.1045694,0-2-0.8954315-2-2V4z"/>
	
		<polyline fill="none"   stroke-linecap="round" stroke-linejoin="round" stroke-miterlimit="10" points="
		30,3 30,14 42,14 	"/>
	
		<polyline fill="none"   stroke-linecap="round" stroke-linejoin="round" stroke-miterlimit="10" points="
		6,42 18.8571434,30.1000004 26,35 35.5714302,25 42,30.1000004 	"/>
	
		<circle fill="none"   stroke-linecap="round" stroke-linejoin="round" stroke-miterlimit="10" cx="18.5" cy="20.5" r="4.5"/>
</g>
<g id="thermometer-3">
	<g>
		
			<line fill="none"   stroke-linejoin="round" stroke-miterlimit="10" x1="24" y1="24" x2="24" y2="35"/>
		<path fill="none"   stroke-linecap="round" stroke-linejoin="round" stroke-miterlimit="10" d="
			M28,31.1V7c0-2.2-1.8-4-4-4h0c-2.2,0-4,1.8-4,4v24.1c-2.7,1.6-4.4,4.7-3.9,8.2c0.5,3.5,3.5,6.3,7,6.7c4.8,0.5,8.9-3.2,8.9-7.9
			C32,35,30.4,32.5,28,31.1z"/>
		<circle cx="24" cy="38" r="5"/>
		
			<line fill="none"   stroke-linecap="round" stroke-linejoin="round" stroke-miterlimit="10" x1="33" y1="6" x2="35" y2="6"/>
		
			<line fill="none"   stroke-linecap="round" stroke-linejoin="round" stroke-miterlimit="10" x1="33" y1="11" x2="35" y2="11"/>
		
			<line fill="none"   stroke-linecap="round" stroke-linejoin="round" stroke-miterlimit="10" x1="33" y1="16" x2="35" y2="16"/>
		
			<line fill="none"   stroke-linecap="round" stroke-linejoin="round" stroke-miterlimit="10" x1="33" y1="21" x2="35" y2="21"/>
	</g>
</g>
<g id="drop">
	<g>
		<path fill="none"   stroke-linecap="round" stroke-miterlimit="10" d="M40.4,34.5
			c0,3-2.4,5.5-5.5,5.5s-5.5-2.4-5.5-5.5s5.5-9.8,5.5-9.8S40.4,31.5,40.4,34.5z"/>
		<path fill="none"   stroke-linecap="round" stroke-miterlimit="10" d="M29.5,16.8
			c0,3-2.4,5.5-5.5,5.5s-5.5-2.4-5.5-5.5S24,7,24,7S29.5,13.8,29.5,16.8z"/>
		<path fill="none"   stroke-linecap="round" stroke-miterlimit="10" d="M18.6,34.5
			c0,3-2.4,5.5-5.5,5.5s-5.5-2.4-5.5-5.5s5.5-9.8,5.5-9.8S18.6,31.5,18.6,34.5z"/>
	</g>
</g>
<g id="graph-smooth">
	<path fill="none"   stroke-linecap="round" stroke-linejoin="round" stroke-miterlimit="10" d="
		M3,3v41c0,0.5522842,0.4477153,1,1,1h41"/>
	<g>
		<path fill="none"   stroke-linecap="round" stroke-linejoin="round" stroke-miterlimit="10" d="
			M3,17c7.1633854,0,7.1633854,12,14.3267708,12c7.1683064,0,7.1683064-12,14.3366146-12S38.8316917,29,46,29"/>
	</g>
</g>
<g id="stop">
	<g>
		<path fill="none"   stroke-linecap="round" stroke-linejoin="round" stroke-miterlimit="10" d="
			M18,5.9822998C10.4501343,8.4960327,5,15.6055908,5,24c0,10.4934082,8.5065918,19,19,19s19-8.5065918,19-19
			c0-8.3944092-5.4501343-15.5039673-13-18.0177002"/>
		<path fill="none"   stroke-linecap="round" stroke-linejoin="round" stroke-miterlimit="10" d="
			M18,6"/>
		<path fill="none"   stroke-linecap="round" stroke-linejoin="round" stroke-miterlimit="10" d="
			M30,6"/>
		<path fill="none"   stroke-linecap="round" stroke-linejoin="round" stroke-miterlimit="10" d="
			M18,6"/>
		<path fill="none"   stroke-linecap="round" stroke-linejoin="round" stroke-miterlimit="10" d="
			M30,6"/>
	</g>
	
		<line fill="none"   stroke-linecap="round" stroke-linejoin="round" stroke-miterlimit="10" x1="24" y1="4" x2="24" y2="23"/>
</g>
<g id="horizontal-arw">
	
		<polyline fill="none"   stroke-linecap="round" stroke-linejoin="round" stroke-miterlimit="10" points="
		37.7660217,11 45,18 37.7660217,25.4679585 	"/>
	
		<polyline fill="none"   stroke-linecap="round" stroke-linejoin="round" stroke-miterlimit="10" points="
		11,37 4,30 11,22.5320415 	"/>
	
		<line fill="none"   stroke-linecap="round" stroke-linejoin="round" stroke-miterlimit="10" x1="44" y1="18" x2="12" y2="18"/>
	
		<line fill="none"   stroke-linecap="round" stroke-linejoin="round" stroke-miterlimit="10" x1="36" y1="30" x2="5" y2="30"/>
</g>
<g id="side-arrow">
		<line fill="none"   stroke-linecap="round" stroke-linejoin="round" stroke-miterlimit="10" x1="5" y1="24" x2="42" y2="24"/>
	
		<polyline fill="none"   stroke-linecap="round" stroke-linejoin="round" stroke-miterlimit="10" points="
		33.5,15.5 42,24 33.5,32.49999981 	"/>
	
		<polyline fill="none"   stroke-linecap="round" stroke-linejoin="round" stroke-miterlimit="10" points="
		13.499999,32.4999962 5.0000029,24 13.499999,15.5000048 	"/>
</g>
<g id="thunderstorms">
	<g>
		<path fill="none"   stroke-linecap="round" stroke-linejoin="round" stroke-miterlimit="10" d="
			M8.8,19.4c-2.7-3.2-2.3-7.9,0.8-10.6s7.9-2.3,10.6,0.8"/>
		
			<line fill="none"   stroke-linecap="round" stroke-linejoin="round" stroke-miterlimit="10" x1="5.1" y1="8.5" x2="2.7" y2="7.4"/>
		
			<line fill="none"   stroke-linecap="round" stroke-linejoin="round" stroke-miterlimit="10" x1="17.3" y1="3.9" x2="18.1" y2="1.5"/>
		
			<line fill="none"   stroke-linecap="round" stroke-linejoin="round" stroke-miterlimit="10" x1="3.8" y1="16" x2="1.3" y2="16.3"/>
		
			<line fill="none"   stroke-linecap="round" stroke-linejoin="round" stroke-miterlimit="10" x1="10.2" y1="3.9" x2="9.2" y2="1.5"/>
		<path fill="none"   stroke-linecap="round" stroke-linejoin="round" stroke-miterlimit="10" d="
			M35.5,36c5.2,0,9.5-4.3,9.5-9.5c0-3.2-1.6-6-4-7.8c0-0.2,0-0.5,0-0.7c0-6.6-5.4-12-12-12s-12,5.4-12,12c0,1.2,0.2,2.4,0.5,3.5
			C16,20,13.9,19,11.5,19C6.8,19,3,22.8,3,27.5"/>
		<path fill="none"   stroke-linecap="round" stroke-linejoin="round" stroke-miterlimit="10" d="
			M31.7,23.3c0.8,0.8,1.3,1.9,1.3,3.2s-0.5,2.4-1.3,3.2c-0.8,0.8-1.9,1.3-3.2,1.3H3"/>
		
			<line fill="none"   stroke-linecap="round" stroke-linejoin="round" stroke-miterlimit="10" x1="29" y1="34" x2="9" y2="34"/>
		<path fill="none"   stroke-linecap="round" stroke-linejoin="round" stroke-miterlimit="10" d="
			M31,40c0-1.7-1.3-3-3-3H13"/>
	</g>
</g>
<g id="designpalet">
	<g id="design-palet">
		<path fill="none"   stroke-linecap="round" stroke-linejoin="round" stroke-miterlimit="10" d="
			M36.4430122,39.6579514c-2.6234055,2.0847588-5.4396534,4.0341339-8.5168629,4.3422928
			C24.6000004,44.3333321,22.2435093,42.0704613,23,39c0.708334-2.875,4.0847969-4.8283348,2-7c-3-3.125-9.2929916,3.9159393-15,3
			C-0.125,33.375,0.2,17.4666672,11.5569887,8.3420477c9.4718637-7.6100407,22.7946739-6.6770086,29.6667595,1.9706402
			S45.9554253,32.0986595,36.4430122,39.6579514z"/>
		
			<circle fill="none"   stroke-linecap="round" stroke-linejoin="round" stroke-miterlimit="10" cx="13.2666702" cy="24" r="4.3333335"/>
		
			<circle fill="none"   stroke-linecap="round" stroke-linejoin="round" stroke-miterlimit="10" cx="19.2666702" cy="14" r="3"/>
		
			<circle fill="none"   stroke-linecap="round" stroke-linejoin="round" stroke-miterlimit="10" cx="29.2666702" cy="12" r="1.9166666"/>
		
			<circle fill="none"   stroke-linecap="round" stroke-linejoin="round" stroke-miterlimit="10" cx="37.2666626" cy="16" r="1.1041666"/>
	</g>
</g>
<g id="channel">
	<path fill="none"   stroke-linecap="round" stroke-linejoin="round" stroke-miterlimit="10" d="
		M43.703083,17.9039211c1.6836014,5.4221764,1.0097656,11.013361-1.4406891,15.6698513s-6.6775246,8.3782768-12.1003933,10.0616646
		c-5.4228668,1.6833839-11.0147648,1.0096321-15.6718473-1.4405098S6.1108055,35.5182533,4.4272056,30.0960789
		s-1.0097632-11.013361,1.440691-15.6698503s6.677525-8.3782787,12.1003914-10.0616646s11.0147667-1.0096345,15.6718483,1.4405074"
		/>
	
		<circle fill="none"   stroke-linecap="round" stroke-linejoin="round" stroke-miterlimit="10" cx="24" cy="24" r="10.5"/>
	
		<circle fill="none"   stroke-linecap="round" stroke-linejoin="round" stroke-miterlimit="10" cx="29.5384521" cy="21.6923065" r="1"/>
	
		<polyline fill="none"   stroke-linecap="round" stroke-linejoin="round" stroke-miterlimit="10" points="
		41,20 42.7584152,16.5236454 46.4970665,17.4581909 	"/>
	
		<line fill="none"   stroke-linecap="round" stroke-linejoin="round" stroke-miterlimit="10" x1="24" y1="11" x2="24" y2="13"/>
	
		<line fill="none"   stroke-linecap="round" stroke-linejoin="round" stroke-miterlimit="10" x1="24" y1="35" x2="24" y2="37"/>
	
		<line fill="none"   stroke-linecap="round" stroke-linejoin="round" stroke-miterlimit="10" x1="37" y1="24" x2="35" y2="24"/>
	
		<line fill="none"   stroke-linecap="round" stroke-linejoin="round" stroke-miterlimit="10" x1="13" y1="24" x2="11" y2="24"/>
	
		<line fill="none"   stroke-linecap="round" stroke-linejoin="round" stroke-miterlimit="10" x1="33.1923866" y1="14.8076115" x2="31.7781754" y2="16.2218246"/>
	
		<line fill="none"   stroke-linecap="round" stroke-linejoin="round" stroke-miterlimit="10" x1="16.2218246" y1="31.7781754" x2="14.8076115" y2="33.1923866"/>
	
		<line fill="none"   stroke-linecap="round" stroke-linejoin="round" stroke-miterlimit="10" x1="33.1923866" y1="33.1923866" x2="31.7781754" y2="31.7781754"/>
	
		<line fill="none"   stroke-linecap="round" stroke-linejoin="round" stroke-miterlimit="10" x1="16.2218246" y1="16.2218246" x2="14.8076115" y2="14.8076115"/>
</g>
<g id="study-lamp">
	<path fill="none"   stroke-linecap="round" stroke-linejoin="round" stroke-miterlimit="10" d="
		M2.1496975,12.5397167c2.7024705-2.7645178,7.1343403-2.8148165,9.8988571-0.1123457s2.8148165,7.1343412,0.1123457,9.8988581
		L2.1496975,12.5397167z"/>
	<path fill="none"   stroke-linecap="round" stroke-linejoin="round" stroke-miterlimit="10" d="
		M9.2998276,19.5293694c-1.1582022,1.1847935-3.0575747,1.2063503-4.2423677,0.0481472
		c-1.1847932-1.1582012-1.2063498-3.0575733-0.0481482-4.2423668"/>
	
		<polyline fill="none"   stroke-linecap="round" stroke-linejoin="round" stroke-miterlimit="10" points="
		10.6183834,11.0292978 12.7154932,8.8840399 15.5758362,11.6801863 13.4787264,13.8254442 	"/>
	
		<line fill="none"   stroke-linecap="round" stroke-linejoin="round" stroke-miterlimit="10" x1="17" y1="8" x2="14.1456642" y2="10.2821131"/>
	
		<line fill="none"   stroke-linecap="round" stroke-linejoin="round" stroke-miterlimit="10" x1="14" y1="5" x2="31" y2="22"/>
	
		<circle fill="none"   stroke-linecap="round" stroke-linejoin="round" stroke-miterlimit="10" cx="31" cy="24" r="2"/>
	
		<line fill="none"   stroke-linecap="round" stroke-linejoin="round" stroke-miterlimit="10" x1="31" y1="26" x2="31" y2="42"/>
	<path fill="none"   stroke-linecap="round" stroke-linejoin="round" stroke-miterlimit="10" d="
		M34,48h-7v-1.5000038C27,44.5670013,28.5670013,43,30.4999962,43h0.0000076C32.4329987,43,34,44.5670013,34,46.4999962V48z"/>
</g>
<g id="slider">
	<path fill="none"   stroke-linecap="round" stroke-linejoin="round" stroke-miterlimit="10" d="
		M37,39H11c-1.6568546,0-3-1.3431473-3-3V12c0-1.6568546,1.3431454-3,3-3h26c1.6568527,0,3,1.3431454,3,3v24
		C40,37.6568527,38.6568527,39,37,39z"/>
	
		<polygon fill="none"   stroke-linecap="round" stroke-linejoin="round" stroke-miterlimit="10" points="
		21,17.5 30,24 21,30.5 	"/>
	<path fill="none"   stroke-linecap="round" stroke-linejoin="round" stroke-miterlimit="10" d="
		M43,10l1.683773-0.5612574C45.3313026,9.2228985,46,9.7048683,46,10.3874254v27.2251511
		c0,0.6825562-0.6686974,1.1645241-1.316227,0.9486809L43,38"/>
	<path fill="none"   stroke-linecap="round" stroke-linejoin="round" stroke-miterlimit="10" d="
		M5,38l-1.6837723,0.5612564C2.6686966,38.7770996,2,38.2951317,2,37.6125755V10.3874254
		c0-0.6825571,0.6686966-1.1645269,1.3162277-0.9486828L5,10"/>
</g>
</svg>